# Blender v2.79 (sub 0) OBJ File: ''
# www.blender.org
mtllib сцена.mtl
o Cylinder
v 1.711491 -0.244965 -6.020131
v 3.462164 -0.244965 -5.181494
v 4.767659 -0.244965 -4.054701
v 5.956409 -0.244965 -1.921552
v 6.231730 -0.244965 -0.000000
v 6.020131 -0.244965 1.711490
v 4.906917 -0.244965 3.885015
v 3.462163 -0.244965 5.181494
v 1.921555 -0.244965 5.956409
v -0.000002 -0.244965 6.231730
v -1.711493 -0.244965 6.020130
v -3.462167 -0.244965 5.181492
v -4.767661 -0.244965 4.054700
v -5.956410 -0.244965 1.921550
v -6.238350 -0.244965 -0.504142
v -5.570557 -0.244965 -2.853082
v -4.054695 -0.244965 -4.767665
v -1.384000 -0.244965 -6.153689
v 1.274712 0.131447 -6.059213
v 2.570748 0.216655 -5.578766
v 5.097057 0.246185 -3.405745
v 4.033260 0.044955 -4.786141
v 5.538223 0.056837 -2.917932
v 6.183457 0.164807 -0.508216
v 6.059213 0.131447 1.274711
v 5.579836 0.213764 2.572573
v 3.397700 0.222335 5.137072
v 4.786140 0.044955 4.033260
v 0.488540 0.245364 6.045395
v 1.738773 0.044955 6.012570
v -1.758012 0.245116 5.795378
v -0.650703 0.056837 6.225980
v -3.024508 0.106569 5.452451
v -4.859010 0.164806 3.857908
v -5.814498 0.245289 1.763806
v -6.012571 0.044955 1.738768
v -5.978491 0.245582 -1.189204
v -6.222371 0.065132 -0.677889
v -4.755140 0.245364 -3.764853
v -5.466836 0.054364 -3.046541
v -2.864264 0.245289 -5.358675
v -3.884835 0.054364 -4.906706
v -0.098272 0.191315 -6.162185
v -1.738763 0.044955 -6.012573
vn 0.6332 -0.2469 -0.7336
vn 0.8120 -0.3688 -0.4525
vn 0.9882 -0.0592 -0.1416
vn -0.1192 -0.2385 0.9638
vn -0.4268 -0.1554 0.8909
vn 0.4545 0.1179 -0.8829
vn 0.1520 0.8723 0.4648
vn -0.0582 0.8511 0.5217
vn -0.6898 0.6396 0.3393
vn -0.8776 0.3879 -0.2817
vn -0.7068 0.3730 -0.6011
vn -0.4330 0.3190 -0.8431
vn -0.1211 0.8714 -0.4754
vn 0.0038 1.0000 -0.0011
vn 0.0668 0.9358 -0.3461
vn -0.1663 0.9597 0.2264
vn 0.2642 0.9638 0.0364
vn 0.0030 0.9984 -0.0569
vn -0.0001 1.0000 -0.0001
vn -0.0695 0.9951 0.0699
vn 0.0020 0.9998 -0.0189
vn 0.0768 0.9970 -0.0008
vn 0.0054 1.0000 0.0040
vn -0.0001 1.0000 0.0001
vn 0.0045 1.0000 0.0005
vn -0.0176 0.9998 0.0068
vn 0.0026 1.0000 -0.0015
vn -0.1142 0.3183 -0.9411
vn 0.9872 0.1270 0.0961
vn 0.7261 0.3578 -0.5872
vn 0.8861 0.3872 -0.2546
vn 0.8843 0.0350 0.4656
vn 0.9075 0.2745 0.3178
vn 0.6474 0.0542 0.7602
vn 0.4486 0.1328 0.8838
vn 0.1125 0.0741 0.9909
vn -0.6369 0.2177 0.7396
vn -0.2793 0.3804 0.8816
vn -0.8743 0.0758 0.4795
vn -0.9949 -0.0066 0.1010
vn -0.9573 0.0140 -0.2888
vn -0.7730 0.0009 -0.6344
vn -0.4552 -0.1397 -0.8794
vn 0.0510 -0.1114 -0.9925
vn -0.6223 0.7814 0.0463
vn 0.3182 0.2751 -0.9072
vn 0.2983 0.8845 -0.3588
vn 0.7638 0.1913 -0.6165
vn 0.5527 0.8127 -0.1844
vn 0.3451 0.8924 0.2906
vn 0.0843 0.3748 0.9233
vn -0.2803 0.3737 0.8842
vn -0.4478 0.8684 -0.2128
vn -0.3363 0.8531 -0.3990
usemtl Material
s off
f 22//1 3//1 2//1
f 23//2 4//2 3//2
f 24//3 5//3 4//3
f 32//4 11//4 10//4
f 33//5 12//5 11//5
f 2//6 1//6 20//6 22//6
f 30//7 27//7 29//7
f 32//8 29//8 31//8
f 34//9 35//9 36//9
f 38//10 37//10 40//10
f 40//11 39//11 42//11
f 42//12 41//12 44//12
f 44//13 41//13 43//13
f 31//14 26//14 20//14
f 20//15 19//15 43//15
f 34//16 33//16 31//16
f 26//17 25//17 24//17
f 20//18 43//18 41//18
f 41//19 39//19 37//19
f 35//20 34//20 31//20
f 31//21 29//21 27//21
f 26//22 24//22 21//22
f 20//23 41//23 37//23
f 37//24 35//24 31//24
f 31//25 27//25 26//25
f 26//26 21//26 20//26
f 20//27 37//27 31//27
f 44//28 43//28 18//28
f 6//29 5//29 24//29 25//29
f 22//30 23//30 3//30
f 23//31 24//31 4//31
f 7//32 6//32 26//32 28//32
f 25//33 26//33 6//33
f 8//34 7//34 28//34 27//34
f 9//35 8//35 27//35 30//35
f 10//36 9//36 30//36 32//36
f 13//37 12//37 33//37 34//37
f 32//38 33//38 11//38
f 14//39 13//39 34//39 36//39
f 15//40 14//40 36//40 38//40
f 16//41 15//41 38//41 40//41
f 17//42 16//42 40//42 42//42
f 18//43 17//43 42//43 44//43
f 1//44 18//44 43//44 19//44
f 35//45 37//45 38//45 36//45
f 19//46 20//46 1//46
f 22//47 20//47 21//47
f 23//48 22//48 21//48
f 24//49 23//49 21//49
f 28//50 26//50 27//50
f 32//51 30//51 29//51
f 33//52 32//52 31//52
f 40//53 37//53 39//53
f 42//54 39//54 41//54
o Plane_Plane.001
v -6.738416 -1.715040 -3.433335
v -5.062611 0.811147 4.927765
v -2.503619 12.740378 4.684143
v -6.968608 4.121550 -0.815441
v -6.714608 -1.031314 1.723413
v -6.200285 5.121387 3.836191
v -7.309041 11.861706 -0.064498
v -6.467631 1.520423 -2.147985
v -4.106144 8.488297 4.323153
v -8.345076 11.994749 -0.860341
v -8.785852 7.581389 -0.491119
v -6.646591 -1.057437 -0.703395
v -5.182507 2.643219 2.880785
v -6.349323 6.933112 1.838058
v -5.511765 1.868598 0.873196
v -6.408740 2.054699 2.052234
v -5.956117 2.281603 -0.338262
v -5.833045 0.181747 5.218699
v -2.835645 10.607318 4.789205
v -10.847816 12.069672 -2.768537
v -7.739901 5.624144 -0.420798
v -5.788514 3.536407 3.460184
v -5.683815 12.038496 1.288351
v -6.442924 4.860682 0.791482
v -6.331409 4.262475 2.142424
v -6.496684 2.847864 -1.359779
v -5.982716 -0.708866 4.525070
v -5.336262 6.718329 3.914109
v -6.820570 -1.325198 -2.071616
v -4.879194 1.263709 4.441595
v -4.095111 12.287580 3.030817
v -6.749269 4.812241 3.444066
v -6.750891 4.167780 2.951223
v -6.984323 0.950189 2.724668
v -6.051286 1.866969 2.642457
v -5.380974 9.464880 2.123987
v -5.861050 7.397858 2.246109
v -5.106411 8.562336 2.906798
v -6.147878 5.789867 2.327485
v -6.259864 5.492035 1.788154
v -9.932380 9.928768 -1.419595
v -6.127223 1.115407 0.426990
v -6.905212 -0.572427 -3.252048
v -6.377033 1.192876 3.700959
v -6.607568 3.147648 3.053206
v -6.204611 3.755170 1.436174
v -7.020743 9.246320 0.993510
v 6.738418 -1.715038 -3.433335
v 5.062611 0.811149 4.927764
v 2.503619 12.740379 4.684142
v 6.968609 4.121551 -0.815442
v 6.714607 -1.031313 1.723412
v 6.200285 5.121388 3.836191
v 7.309042 11.861707 -0.064498
v 6.467631 1.520425 -2.147986
v 4.106145 8.488298 4.323153
v 8.345078 11.994749 -0.860342
v 8.785854 7.581390 -0.491120
v 6.646592 -1.057435 -0.703397
v 5.182507 2.643222 2.880784
v 6.349323 6.933113 1.838058
v 5.511765 1.868599 0.873196
v 6.408740 2.054701 2.052233
v 5.956118 2.281604 -0.338263
v 5.833043 0.181749 5.218699
v 2.835645 10.607319 4.789205
v 10.847818 12.069672 -2.768538
v 7.739902 5.624145 -0.420798
v 5.788514 3.536409 3.460184
v 5.683815 12.038496 1.288350
v 6.442924 4.860683 0.791481
v 6.331409 4.262476 2.142424
v 6.496683 2.847865 -1.359779
v 5.982716 -0.708863 4.525070
v 5.336262 6.718331 3.914109
v 6.820571 -1.325197 -2.071616
v 4.879194 1.263711 4.441595
v 4.095112 12.287580 3.030817
v 6.749269 4.812243 3.444066
v 6.750891 4.167781 2.951222
v 6.984322 0.950190 2.724667
v 6.051287 1.866970 2.642458
v 5.380975 9.464881 2.123986
v 5.861051 7.397859 2.246109
v 5.106411 8.562337 2.906798
v 6.147879 5.789869 2.327485
v 6.259865 5.492037 1.788154
v 9.932381 9.928769 -1.419595
v 6.127223 1.115408 0.426990
v 6.905214 -0.572426 -3.252049
v 6.377032 1.192878 3.700959
v 6.607569 3.147649 3.053205
v 6.204612 3.755171 1.436174
v 7.020743 9.246321 0.993509
vn -0.8890 0.0497 -0.4552
vn -0.3775 -0.2731 0.8848
vn -0.9711 0.2131 0.1076
vn -0.8710 0.4184 0.2574
vn -0.9435 0.2027 -0.2620
vn -0.8839 0.1595 -0.4397
vn -0.6414 0.1676 0.7487
vn -0.8127 0.2206 0.5394
vn -0.7303 -0.4978 0.4679
vn -0.6201 0.1039 0.7776
vn -0.9686 0.2470 -0.0298
vn -0.9898 -0.1414 -0.0192
vn -0.9071 -0.2294 0.3529
vn -0.7907 0.0526 -0.6099
vn -0.5685 0.2539 0.7825
vn -0.5744 0.1284 0.8084
vn -0.7441 0.1283 0.6556
vn -0.7615 0.3344 0.5553
vn -0.7324 0.1468 0.6648
vn -0.5718 0.2527 0.7805
vn -0.9241 -0.3690 0.0991
vn -0.4728 0.6954 0.5412
vn -0.5849 0.2396 0.7749
vn -0.8147 0.4464 0.3701
vn -0.7328 0.3943 0.5546
vn -0.9727 -0.0681 0.2218
vn -0.9686 -0.0684 0.2389
vn -0.7420 0.1265 0.6584
vn -0.9981 0.0461 -0.0416
vn -0.6642 0.3266 0.6725
vn -0.7192 0.1625 0.6755
vn -0.8583 0.1279 -0.4970
vn -0.7366 0.2091 0.6432
vn -0.9708 -0.0769 0.2270
vn -0.7129 -0.3197 0.6241
vn -0.9807 0.1479 0.1277
vn -0.6979 -0.0586 0.7138
vn -0.8065 0.4025 0.4330
vn -0.9674 0.0746 0.2421
vn -0.8512 -0.3725 0.3698
vn -0.6352 0.6794 0.3674
vn -0.9088 -0.0077 0.4172
vn -0.3425 0.7283 0.5936
vn -0.8077 0.1411 -0.5724
vn -0.9407 -0.3058 0.1470
vn -0.9255 -0.2635 0.2721
vn -0.9793 -0.1214 0.1620
vn -0.0447 -0.4338 0.8999
vn -0.9499 -0.2926 0.1100
vn -0.7512 0.2870 0.5944
vn 0.8890 0.0497 -0.4552
vn 0.3775 -0.2731 0.8848
vn 0.9711 0.2131 0.1076
vn 0.8710 0.4184 0.2574
vn 0.9435 0.2027 -0.2620
vn 0.8839 0.1595 -0.4397
vn 0.6414 0.1676 0.7487
vn 0.8126 0.2206 0.5394
vn 0.7303 -0.4978 0.4679
vn 0.6201 0.1039 0.7776
vn 0.9686 0.2470 -0.0298
vn 0.9898 -0.1414 -0.0192
vn 0.9071 -0.2294 0.3529
vn 0.7907 0.0526 -0.6099
vn 0.5685 0.2539 0.7825
vn 0.5744 0.1284 0.8084
vn 0.7441 0.1283 0.6556
vn 0.7615 0.3344 0.5553
vn 0.7324 0.1468 0.6648
vn 0.5718 0.2527 0.7805
vn 0.9241 -0.3690 0.0991
vn 0.4728 0.6954 0.5412
vn 0.5849 0.2396 0.7749
vn 0.8147 0.4464 0.3701
vn 0.7328 0.3943 0.5546
vn 0.9727 -0.0681 0.2218
vn 0.9686 -0.0684 0.2389
vn 0.7420 0.1265 0.6584
vn 0.9981 0.0461 -0.0416
vn 0.6642 0.3266 0.6725
vn 0.7192 0.1625 0.6755
vn 0.8583 0.1279 -0.4970
vn 0.7366 0.2091 0.6432
vn 0.9708 -0.0769 0.2270
vn 0.7129 -0.3197 0.6241
vn 0.9807 0.1479 0.1277
vn 0.6979 -0.0586 0.7138
vn 0.8065 0.4025 0.4330
vn 0.9674 0.0746 0.2421
vn 0.8512 -0.3725 0.3698
vn 0.6352 0.6794 0.3674
vn 0.9088 -0.0077 0.4172
vn 0.3425 0.7283 0.5936
vn 0.8077 0.1411 -0.5724
vn 0.9407 -0.3058 0.1470
vn 0.9255 -0.2635 0.2721
vn 0.9793 -0.1214 0.1620
vn 0.0447 -0.4338 0.8999
vn 0.9499 -0.2926 0.1100
vn 0.7512 0.2870 0.5944
usemtl Material.001
s off
f 77//55 69//55 60//55
f 76//56 89//56 66//56 50//56
f 86//57 61//57 87//57
f 76//58 82//58 81//58
f 76//59 81//59 77//59
f 77//60 83//60 69//60
f 80//61 67//61 51//61
f 82//62 80//62 81//62
f 68//63 65//63 48//63
f 58//64 91//64 85//64
f 56//65 49//65 86//65
f 73//66 87//66 45//66
f 61//67 70//67 52//67
f 60//68 69//68 59//68
f 91//69 51//69 54//69
f 58//70 80//70 91//70
f 63//71 75//71 80//71
f 53//72 63//72 82//72
f 63//73 47//73 75//73
f 91//74 80//74 51//74
f 90//75 59//75 69//75
f 79//76 88//76 74//76 57//76
f 54//77 64//77 85//77 91//77
f 86//78 49//78 59//78
f 82//79 76//79 72//79 53//79
f 68//80 84//80 58//80
f 84//81 83//81 58//81
f 80//82 75//82 67//82
f 83//83 84//83 90//83 69//83
f 50//84 72//84 76//84
f 83//85 81//85 58//85
f 77//86 81//86 83//86
f 58//87 81//87 80//87
f 68//88 90//88 84//88
f 58//89 55//89 65//89 68//89
f 87//90 73//90 56//90 86//90
f 55//91 58//91 85//91
f 86//92 59//92 61//92
f 87//93 61//93 52//93
f 48//94 70//94 61//94 68//94
f 79//95 60//95 78//95 88//95
f 88//96 78//96 71//96 62//96
f 88//97 62//97 46//97 74//97
f 60//98 59//98 49//98 78//98
f 89//99 77//99 60//99 79//99
f 49//100 71//100 78//100
f 89//101 76//101 77//101
f 66//102 89//102 79//102 57//102
f 68//103 61//103 59//103 90//103
f 82//104 63//104 80//104
f 124//105 107//105 116//105
f 123//106 97//106 113//106 136//106
f 133//107 134//107 108//107
f 123//108 128//108 129//108
f 123//109 124//109 128//109
f 124//110 116//110 130//110
f 127//111 98//111 114//111
f 129//112 128//112 127//112
f 115//113 95//113 112//113
f 105//114 132//114 138//114
f 103//115 133//115 96//115
f 120//116 92//116 134//116
f 108//117 99//117 117//117
f 107//118 106//118 116//118
f 138//119 101//119 98//119
f 105//120 138//120 127//120
f 110//121 127//121 122//121
f 100//122 129//122 110//122
f 110//123 122//123 94//123
f 138//124 98//124 127//124
f 137//125 116//125 106//125
f 126//126 104//126 121//126 135//126
f 101//127 138//127 132//127 111//127
f 133//128 106//128 96//128
f 129//129 100//129 119//129 123//129
f 115//130 105//130 131//130
f 131//131 105//131 130//131
f 127//132 114//132 122//132
f 130//133 116//133 137//133 131//133
f 97//134 123//134 119//134
f 130//135 105//135 128//135
f 124//136 130//136 128//136
f 105//137 127//137 128//137
f 115//138 131//138 137//138
f 105//139 115//139 112//139 102//139
f 134//140 133//140 103//140 120//140
f 102//141 132//141 105//141
f 133//142 108//142 106//142
f 134//143 99//143 108//143
f 95//144 115//144 108//144 117//144
f 126//145 135//145 125//145 107//145
f 135//146 109//146 118//146 125//146
f 135//147 121//147 93//147 109//147
f 107//148 125//148 96//148 106//148
f 136//149 126//149 107//149 124//149
f 96//150 125//150 118//150
f 136//151 124//151 123//151
f 113//152 104//152 126//152 136//152
f 115//153 137//153 106//153 108//153
f 129//154 127//154 110//154
