# Blender 3.4.1
# www.blender.org
mtllib туалет .mtl
o Cube
v -5.312907 -2.026350 0.779618
v -5.303896 -0.428880 -0.772839
v -5.307571 -0.452654 0.783180
v -3.746696 -2.025954 0.785343
v -5.307281 -0.207186 -1.817238
v -5.303004 1.187169 -0.769417
v -5.302644 1.183655 -1.819530
v -5.307164 -2.025207 -1.820565
v -3.742021 1.187077 -1.820581
v -3.740046 -2.025717 -1.816929
v -4.987692 -0.460697 0.557230
v -4.985754 -0.459456 -0.562925
v -4.067375 -0.459586 0.562530
v -4.064490 -0.459872 -0.558912
v -4.983089 -1.086933 0.554902
v -4.072309 -1.088649 0.548169
v -4.690303 1.153040 -1.524850
v -4.699197 1.273339 -1.177553
v -3.744754 -0.452576 0.785525
v -3.752385 -0.444648 -0.762095
v -3.670857 -1.050439 -0.829682
v -5.299140 -0.438138 -0.761868
v -3.910454 -2.017963 0.659559
v -3.892478 0.051001 -1.924822
v -5.413849 -1.102503 -0.845059
v -3.749309 1.182757 -0.775416
v -3.746726 0.510505 -0.768876
v -5.134250 0.356932 -0.654921
v -5.312396 1.198598 -1.293129
v -3.918022 -2.017889 -1.291591
v -5.140061 -1.232602 -1.880299
v -5.142136 -2.018006 0.663485
v -3.746226 -0.461250 -0.665269
v -4.990326 -0.456789 0.000611
v -4.062768 -0.456700 -0.000497
v -3.891846 -0.460259 0.663525
v -4.526933 -0.455966 -0.563539
v -4.527147 -0.456489 0.563077
v -3.695022 -1.238451 0.654446
v -4.078352 -1.093790 -0.552923
v -4.979626 -1.093764 -0.548370
v -4.404590 1.154717 -1.518364
v -4.411802 1.156099 -1.168953
v -4.402590 1.277709 -1.523010
v -4.406001 1.277039 -1.169752
v -4.698872 1.150904 -1.172347
v -4.695499 1.277689 -1.526850
v -4.694355 1.213491 -1.345741
v -4.553086 1.214294 -1.521192
v -4.408074 1.214038 -1.349620
v -4.549269 1.215484 -1.174240
v -4.551456 1.271688 -1.347871
v -4.551322 1.157526 -1.348018
v -4.986225 -0.758742 0.547585
v -4.974530 -1.094832 0.057224
v -4.526830 -0.780534 -0.559409
v -4.528758 -1.085519 -0.559655
v -5.121588 -0.455427 -0.648956
v -5.305902 -1.238744 0.655950
v -4.078804 -1.095715 -0.049514
v -3.945085 -0.454994 -0.647444
v -3.921946 -1.238611 0.831235
v -3.738534 1.187289 -1.396586
v -5.135440 -0.459143 0.665555
v -5.307566 -1.114749 0.785137
vn 0.0008 0.9980 -0.0638
vn 0.9925 0.1183 0.0311
vn 0.0250 -0.0010 0.9997
vn -0.0074 -0.0224 -0.9997
vn -0.0386 0.9993 0.0015
vn -0.0005 0.9994 0.0339
vn 0.0388 -0.9992 -0.0051
vn 0.0054 -0.9998 0.0211
vn 0.0124 0.0324 -0.9994
vn 0.0183 0.9998 0.0038
vn -0.0182 0.9998 0.0019
vn -0.0439 0.9989 -0.0166
vn -0.9999 -0.0000 -0.0128
vn 0.0317 0.9995 0.0027
vn 0.0009 1.0000 0.0051
vn 0.0042 0.9953 0.0969
vn 0.0005 -0.9975 -0.0709
vn 0.9998 0.0040 0.0174
vn 0.9996 0.0281 -0.0082
vn -0.9998 0.0033 -0.0186
vn -0.9244 0.1118 0.3647
vn 0.0071 1.0000 -0.0006
vn -0.9936 -0.1125 -0.0022
vn -0.0009 0.0915 -0.9958
vn -0.3548 -0.0004 -0.9350
vn 0.0486 -0.9988 -0.0003
vn -0.0088 0.9996 -0.0263
vn -0.5663 -0.0014 0.8242
vn 0.9979 -0.0651 0.0025
vn -0.9836 0.1592 0.0852
vn 0.0442 0.9990 0.0096
vn -0.0330 0.0030 0.9995
vn -0.8819 0.0944 0.4620
vn -0.0022 0.9996 -0.0284
vn 0.5725 -0.0006 -0.8199
vn -0.9998 0.0005 0.0179
vn -0.0004 -0.9999 0.0148
vn -0.0015 0.0584 0.9983
vn 0.0078 0.9978 0.0655
vn -0.0486 -0.9988 -0.0002
vn -1.0000 -0.0012 -0.0055
vn 0.0091 1.0000 -0.0009
vn -0.9997 -0.0188 -0.0163
vn 0.9998 0.0099 0.0170
vn -0.0149 -0.9999 0.0036
vn -0.9996 -0.0038 -0.0274
vn -0.9987 -0.0493 -0.0112
vn 0.0130 -0.0152 -0.9998
vn 0.0131 -0.0597 -0.9981
vn 0.9996 -0.0247 0.0127
vn 0.0332 -0.0147 -0.9993
vn 0.9982 -0.0600 0.0095
vn -0.0158 0.0162 0.9997
vn 0.9995 -0.0153 0.0260
vn 0.0070 0.0286 -0.9996
vn -0.0129 0.0591 0.9982
vn -0.0349 0.0083 0.9994
vn 0.0258 0.9996 0.0127
vn -0.0121 0.9997 -0.0202
vn 0.0184 -0.9996 -0.0223
vn 0.0025 1.0000 0.0041
vn 0.9999 0.0172 -0.0005
vn 0.9998 0.0186 0.0028
vn -0.0085 0.0107 0.9999
vn -0.0150 -0.0007 0.9999
vn 0.0060 0.0195 0.9998
vn -0.9999 0.0165 0.0016
vn 0.0325 0.9995 -0.0045
vn 0.0945 0.9955 0.0038
vn -0.9998 0.0060 -0.0186
vn 0.9970 -0.0773 0.0064
vn 0.9897 0.1376 -0.0394
vn -0.0002 -0.9980 -0.0632
vn -0.9997 0.0234 0.0012
vn -0.0024 0.9997 0.0231
vn -0.0006 0.9883 0.1522
vn -0.0072 1.0000 0.0013
vn 0.0363 0.0844 0.9958
vn 0.0459 0.9851 0.1660
vn 0.2515 -0.0004 0.9678
vn -0.3437 0.0017 -0.9391
vn -0.0436 -0.9991 0.0001
vn -0.0473 0.9989 -0.0059
vn 0.0419 -0.0612 0.9972
vn 0.9903 0.0430 0.1322
vn 0.0055 0.9999 0.0139
vn -0.9961 0.0276 -0.0838
vn 0.0025 -1.0000 0.0015
vn -0.9941 0.0001 -0.1088
vn -0.0575 0.0212 -0.9981
vn 0.0121 -0.0584 -0.9982
vn 0.0025 0.9998 0.0217
vn -0.0189 -0.0321 0.9993
vn -0.0000 0.9985 -0.0550
vn -0.8715 0.1167 0.4763
vn 0.9326 -0.0012 0.3610
vn 0.9980 0.0634 -0.0014
vn -0.9971 0.0204 0.0736
vn 0.9975 0.0005 -0.0704
s 0
usemtl None.002
f 19//1 36//1 64//1
f 33//2 39//2 21//2
f 41//3 57//3 56//3
f 16//4 15//4 54//4
f 52//5 45//5 44//5
f 52//6 44//6 47//6
f 17//7 53//7 46//7
f 42//8 53//8 17//8
f 38//9 54//9 11//9
f 57//10 60//10 40//10
f 55//11 57//11 41//11
f 55//12 15//12 57//12
f 3//13 59//13 65//13
f 36//14 33//14 61//14
f 13//15 36//15 35//15
f 61//16 20//16 22//16
f 32//17 4//17 1//17
f 63//18 26//18 27//18
f 9//19 63//19 21//19
f 29//20 7//20 5//20
f 2//21 29//21 25//21
f 63//22 9//22 29//22
f 25//23 8//23 1//23
f 7//24 9//24 24//24
f 5//25 7//25 31//25
f 1//26 8//26 32//26
f 11//27 64//27 38//27
f 28//28 6//28 2//28
f 39//29 4//29 10//29
f 22//30 25//30 59//30
f 3//31 64//31 22//31
f 3//32 65//32 62//32
f 25//33 22//33 2//33
f 29//34 9//34 7//34
f 24//35 9//35 10//35
f 29//36 2//36 6//36
f 30//37 8//37 10//37
f 19//38 3//38 62//38
f 61//39 37//39 14//39
f 23//40 10//40 4//40
f 3//41 22//41 59//41
f 60//42 57//42 15//42 16//42
f 48//43 47//43 17//43 46//43
f 54//44 15//44 55//44
f 53//45 42//45 43//45
f 48//46 46//46 18//46
f 48//47 18//47 47//47
f 49//48 44//48 42//48 17//48
f 49//49 47//49 44//49
f 50//50 45//50 43//50 42//50
f 17//51 47//51 49//51
f 50//52 44//52 45//52
f 18//53 46//53 51//53 45//53
f 42//54 44//54 50//54
f 16//55 54//55 38//55 13//55
f 46//56 43//56 51//56
f 43//57 45//57 51//57
f 47//58 18//58 52//58
f 18//59 45//59 52//59
f 53//60 43//60 46//60
f 11//61 34//61 58//61 64//61
f 41//62 12//62 34//62 55//62
f 54//63 55//63 34//63 11//63
f 40//64 14//64 37//64 56//64
f 40//65 56//65 57//65
f 41//66 56//66 37//66 12//66
f 16//67 13//67 35//67 60//67
f 58//68 34//68 12//68
f 22//69 64//69 58//69
f 1//70 65//70 59//70
f 21//71 39//71 10//71
f 20//72 33//72 21//72
f 32//73 23//73 4//73
f 40//74 60//74 35//74 14//74
f 61//75 58//75 12//75 37//75
f 58//76 61//76 22//76
f 36//77 61//77 14//77 35//77
f 6//78 28//78 27//78 26//78
f 20//79 61//79 33//79
f 4//80 19//80 62//80
f 8//81 5//81 31//81
f 23//82 30//82 10//82
f 36//83 19//83 33//83
f 28//84 22//84 20//84 27//84
f 63//85 27//85 20//85 21//85
f 29//86 6//86 26//86 63//86
f 25//87 29//87 5//87
f 30//88 23//88 32//88 8//88
f 25//89 5//89 8//89
f 31//90 7//90 24//90
f 10//91 8//91 31//91 24//91
f 13//92 38//92 64//92 36//92
f 1//93 4//93 62//93 65//93
f 3//94 19//94 64//94
f 22//95 28//95 2//95
f 39//96 19//96 4//96
f 33//97 19//97 39//97
f 59//98 25//98 1//98
f 21//99 10//99 9//99
