# Blender v2.79 (sub 0) OBJ File: 'метла и молот.blend'
# www.blender.org
mtllib молот.mtl
o Cylinder.001_Cylinder.003
v 0.010735 -1.486324 -1.191189
v -0.000000 7.991264 -1.255012
v 1.088581 8.159155 -0.619843
v 1.034919 -1.149374 -0.575466
v 1.081090 8.159153 0.632817
v 1.015828 -1.149374 0.608533
v 0.006227 7.579498 1.241421
v -0.021407 -3.449747 1.248348
v -1.088581 8.159153 0.619843
v -1.034919 -1.149371 0.575466
v -1.078545 7.626492 -0.622083
v -1.070398 -3.449749 -0.642713
v -0.047849 -15.010246 -1.007943
v 0.847056 -15.037319 -0.544715
v 0.895265 -15.037319 0.461215
v 0.048208 -15.037319 1.005930
v -0.848980 -15.010246 0.545410
v -0.894474 -15.051008 -0.460548
v 0.000000 16.068413 -1.161909
v 0.973786 16.151556 -0.528915
v 0.978292 16.081890 0.591303
v -0.027152 16.066923 1.146874
v -1.010168 16.043787 0.558384
v -0.102105 16.448219 0.058951
v -0.976788 16.085114 -0.559066
v 3.525398 10.426472 -1.871488
v -3.531580 9.779696 -1.419286
v 3.524960 9.374193 -0.493974
v -3.512658 9.677032 1.452640
v 3.524280 12.873745 -1.976153
v -3.534853 12.383804 -2.207086
v -4.388775 8.350136 -3.186505
v -4.388776 14.723143 3.186506
v -4.409093 10.808926 -4.312998
v 4.438718 15.934658 -0.403261
v 4.417231 14.259932 -3.647002
v -7.782802 12.383141 3.901945
v 3.522729 9.927353 1.566028
v 4.438719 11.133377 4.398016
v -3.527752 11.569817 2.184298
v 4.414679 13.708626 3.869351
v -3.470633 13.772202 0.794041
v 3.531071 13.764042 0.524864
v 3.520513 12.166395 2.156976
v -4.456811 7.602701 2.136817
v -4.342265 11.183647 4.570616
v -4.418300 14.390318 -3.588066
v -4.438919 7.203366 -0.501033
v -4.449763 15.983309 0.156141
v 4.432347 10.359692 -4.269597
v 4.392257 15.456715 2.263257
v 4.383987 7.860921 2.703217
v 4.425396 7.158179 -0.356320
v 4.388599 7.617288 -2.265287
v -7.819175 15.340992 1.043317
v -7.790927 8.687260 2.741277
v -7.734420 7.644334 -0.958560
v -7.666967 10.597809 -3.947164
v -8.984358 12.590752 -2.212237
v 7.670039 10.438269 -3.926956
v -8.950672 9.706647 -1.526213
v 8.950674 9.188700 0.406701
v 7.691729 8.123100 -1.929234
v 8.946103 10.712652 2.242418
v 7.736618 7.704163 1.280093
v -8.978323 9.510715 1.393723
v 8.984358 13.555649 1.388798
v 7.742396 10.672898 3.951676
v -8.958064 12.354666 2.227501
v 7.752072 14.363308 2.817040
v -8.942997 13.894766 0.408154
v -7.743485 14.464321 -2.732466
v 8.946104 13.371481 -1.529956
v 7.693440 15.488510 -0.927066
v 8.984342 10.482567 -2.212324
v 7.688124 13.457834 -3.423168
vt 0.575425 0.273515
vt 0.614616 0.565312
vt 0.577910 0.628372
vt 0.612394 0.261680
vt 0.808290 0.743487
vt 0.765983 0.726283
vt 0.807821 0.445340
vt 0.686489 0.661435
vt 0.653308 0.400520
vt 0.688170 0.344173
vt 0.723251 0.669928
vt 0.723251 0.401723
vt 0.136529 0.847244
vt 0.136411 0.814938
vt 0.166147 0.798811
vt 0.222896 0.798811
vt 0.250542 0.809992
vt 0.228459 0.838709
vt 0.196031 0.823099
vt 0.196113 0.857333
vt 0.196031 0.814831
vt 0.196031 0.847112
vt 0.166320 0.863311
vt 0.484098 0.361182
vt 0.482487 0.437577
vt 0.390666 0.473969
vt 0.291475 0.075139
vt 0.374995 0.199516
vt 0.366152 0.271828
vt 0.851655 0.427024
vt 0.844180 0.202697
vt 0.929331 0.422380
vt 0.922592 0.884288
vt 0.931064 0.657932
vt 1.000000 0.881418
vt 0.415698 0.000000
vt 0.408939 0.070530
vt 0.503830 0.021304
vt 0.575425 0.175367
vt 0.497750 0.109530
vt 0.205482 0.272544
vt 0.138741 0.277384
vt 0.287772 0.195921
vt 0.206741 0.182134
vt 0.223430 0.105253
vt 0.088273 0.180522
vt 0.039443 0.239688
vt 0.080412 0.106707
vt 0.031643 0.048796
vt 0.143985 0.064427
vt 0.095126 0.001643
vt 0.187542 0.000000
vt 0.287772 0.069406
vt 0.851014 0.000000
vt 0.964775 0.002759
vt 0.853711 0.123989
vt 0.443484 0.559924
vt 0.559573 0.626134
vt 0.443222 0.691357
vt 0.442133 0.727547
vt 0.327859 0.727547
vt 0.421192 0.632791
vt 0.047644 0.758374
vt 0.113840 0.532175
vt 0.136411 0.758374
vt 0.030361 0.532348
vt 0.909580 0.429599
vt 0.878367 0.655608
vt 0.811574 0.430373
vt 0.929331 0.196242
vt 0.000000 0.757529
vt 0.248154 0.744878
vt 0.136634 0.622777
vt 0.246936 0.619870
vt 0.922592 0.731736
vt 0.808795 0.655848
vt 0.919974 0.657813
vt 0.001445 0.906907
vt 0.113161 0.856158
vt 0.114297 0.917467
vt 0.248898 0.532175
vt 0.234760 0.336694
vt 0.198388 0.412960
vt 0.144858 0.332431
vt 0.234760 0.471323
vt 0.133122 0.483912
vt 0.458764 0.517544
vt 0.541115 0.448466
vt 0.003218 0.475406
vt 0.044118 0.438865
vt 0.524073 0.321560
vt 0.391664 0.322348
vt 0.000000 0.343726
vt 0.050377 0.362735
vt 0.111814 0.277384
vt 0.291026 0.339102
vt 0.331353 0.396997
vt 0.287772 0.442122
vt 0.354479 0.517544
vt 0.393270 0.517544
vt 0.443222 0.550937
vt 0.120732 0.532175
vt 0.403521 0.271828
vt 0.808290 0.059863
vt 0.360743 0.117133
vt 0.290714 0.764511
vt 0.405520 0.727547
vt 0.405520 0.864920
vt 0.487769 0.196150
vt 0.965012 0.117564
vt 0.965012 0.196242
vt 0.560606 0.517544
vt 0.558459 0.725470
vt 0.000000 0.127567
vt 0.308341 0.643076
vt 0.136570 0.719562
vt 0.137611 0.784835
vt 0.925732 0.655848
vt 0.572824 0.088800
vt 0.808290 0.655848
vt 1.000000 0.655848
vt 0.287772 0.196764
vt 0.808290 0.429599
vt 0.808290 0.769370
vt 0.558258 0.899052
vt 0.443222 0.922027
vt 0.445214 0.798979
vt 0.000000 0.803953
vt 0.136411 0.548776
vt 0.717873 0.897271
vt 0.683365 0.904304
vt 0.649244 0.668964
vt 0.650064 0.894995
vt 0.805235 0.996091
vt 0.767094 0.997302
vt 0.649244 0.256044
vt 0.610753 0.002900
vt 0.643705 0.000000
vt 0.765983 0.255729
vt 0.723251 0.255820
vt 0.725606 0.000000
vt 0.763829 0.002138
vt 0.615231 0.998581
vt 0.586142 1.000000
vt 0.762189 0.998724
vt 0.727862 0.998853
vt 0.725596 0.553947
vt 0.765983 0.553873
vt 0.774008 0.000000
vt 0.808290 0.001453
vt 0.766556 0.371487
vt 0.662964 0.001337
vt 0.693398 0.007368
vt 0.722502 0.000000
vt 0.649244 0.554273
vt 0.645580 0.999242
vt 0.504924 0.271828
vt 0.250542 0.843858
vt 0.223614 0.867131
vt 0.560606 0.780999
vt 0.446915 0.762908
vt 0.577192 0.002497
vt 0.287772 0.887179
vt 0.154683 0.208446
vt 0.287772 0.560941
vt 0.809400 0.875199
vt 0.922592 0.807421
vt 0.922219 0.874990
vt 0.248898 0.798811
vt 0.558258 0.780999
vt 0.114297 0.758374
vn -0.4543 0.0013 -0.8908
vn -0.5045 -0.0064 -0.8634
vn -1.0000 -0.0057 -0.0056
vn -0.5501 0.0019 0.8351
vn 0.4950 -0.0057 0.8688
vn -0.0521 -0.9977 0.0428
vn 0.2948 0.9538 0.0581
vn 0.1610 0.9348 0.3165
vn -0.2227 0.9151 0.3361
vn 0.0046 -0.9977 -0.0672
vn 0.0078 -1.0000 -0.0004
vn 0.0042 -1.0000 0.0066
vn 0.9999 -0.0078 0.0090
vn 0.7359 0.4672 0.4901
vn 0.0277 0.7142 0.6993
vn 0.0253 -0.2551 0.9666
vn 0.8852 -0.2805 0.3711
vn 0.9162 -0.3952 0.0660
vn 0.8115 -0.4277 -0.3982
vn -0.9989 0.0364 0.0280
vn -0.9354 -0.0155 -0.3533
vn -0.8842 -0.1200 0.4515
vn -0.9319 0.2621 0.2506
vn -0.9991 -0.0345 -0.0236
vn -0.9015 0.4084 -0.1429
vn -0.2327 0.2873 -0.9291
vn -0.3097 0.6588 0.6856
vn -0.3058 -0.6737 -0.6727
vn -0.0348 -0.2894 -0.9566
vn 0.0356 -0.0427 -0.9985
vn -0.0527 -0.9980 -0.0353
vn -0.0419 0.5341 0.8444
vn -0.0493 0.9069 -0.4185
vn 0.1002 0.1572 -0.9825
vn 0.1615 0.9709 0.1768
vn 0.1704 -0.9573 -0.2335
vn 0.0992 -0.5882 -0.8026
vn -0.8556 -0.1292 -0.5012
vn -0.8554 -0.5162 -0.0427
vn 0.8415 -0.4887 -0.2306
vn 0.8137 -0.4463 0.3725
vn -0.8065 -0.1610 0.5688
vn 0.8052 0.1606 0.5708
vn -0.8037 0.4574 0.3805
vn -0.8394 0.4917 -0.2314
vn 0.8543 0.5180 -0.0439
vn 0.8277 0.1394 -0.5436
vn -0.6507 -0.5327 -0.5411
vn 0.7126 -0.4545 -0.5345
vn 0.7417 -0.6637 -0.0970
vn -0.6935 -0.6962 0.1856
vn 0.7326 -0.4561 0.5053
vn -0.7903 -0.1820 0.5851
vn 0.7925 0.1773 0.5835
vn -0.7242 0.4746 0.5003
vn 0.6880 0.6979 0.1990
vn -0.7421 0.6495 -0.1657
vn 0.7088 0.5464 -0.4461
vn -0.6395 0.2189 -0.7370
vn 0.7887 0.0966 -0.6071
vn 0.9998 0.0166 -0.0141
vn 0.9999 -0.0107 0.0091
vn -1.0000 0.0077 -0.0018
vn -0.9998 -0.0142 -0.0104
vn -0.9999 0.0104 0.0106
vn 0.9184 0.1939 0.3449
vn -0.0326 -0.5611 0.8271
vn 0.9459 -0.1104 0.3050
vn 0.9410 -0.3379 -0.0183
vn 0.9426 -0.0956 -0.3198
vn -0.0748 -0.4159 -0.9063
vn -0.0542 0.3630 0.9302
vn -0.1220 0.1966 -0.9729
vn -0.0743 0.9203 0.3842
vn -0.9372 -0.1479 0.3158
vn -0.9101 0.0752 0.4075
vn -0.8573 0.4586 0.2341
vn -0.9332 0.3218 -0.1600
vn -0.9015 0.0648 -0.4280
vn -0.0682 -0.9171 -0.3929
vn 0.2273 0.7552 -0.6149
vn 0.0339 -0.7942 -0.6067
vn 0.9994 0.0209 0.0276
vn 0.0302 -0.9653 0.2592
vn -0.0022 -0.3606 0.9327
vn 0.9998 0.0063 -0.0175
vn -0.0118 0.9420 -0.3353
vn 0.1071 0.1630 -0.9808
vn 0.2564 0.9268 0.2745
vn 0.2733 -0.6438 0.7148
vn 0.2232 -0.9662 -0.1292
vn 0.1743 -0.6424 -0.7463
vn 0.4859 0.0113 0.8740
vn -0.5013 0.0096 0.8652
vn -0.9997 0.0110 -0.0207
vn 0.5226 0.0135 -0.8525
vn 0.9999 0.0137 0.0017
vn -0.4823 -0.0150 -0.8759
vn 0.9999 -0.0110 -0.0133
vn -0.9986 -0.0139 0.0510
vn -0.9995 -0.0008 0.0306
vn -0.5230 -0.0144 0.8522
vn -0.4965 -0.0070 0.8680
vn 0.5443 -0.0139 0.8388
vn 0.5263 -0.0008 0.8503
vn 0.9999 -0.0064 0.0109
vn 0.5105 -0.0061 -0.8598
vn 0.4914 -0.0112 -0.8709
vn 0.9290 0.3368 -0.1534
vn 0.1055 0.9520 -0.2873
vn -0.3966 0.9177 0.0221
vn -0.1727 0.9363 -0.3057
vn -0.1603 0.9371 -0.3100
vn -0.5167 0.0113 -0.8561
vn 0.8937 0.0912 -0.4392
vn -0.2783 -0.2872 0.9166
vn -0.8705 -0.3830 -0.3092
vn -0.9300 -0.3587 0.0801
vn -0.2145 -0.9529 0.2143
vn 0.2060 0.2515 0.9457
vn 0.0479 0.8874 -0.4585
vn 0.0987 0.6740 0.7322
vn 0.0556 -0.4599 0.8862
vn 0.0497 -0.9733 0.2242
usemtl None
s off
f 11/1/1 1/2/1 12/3/1
f 11/1/2 2/4/2 1/2/2
f 9/5/3 11/6/3 10/7/3
f 7/8/4 10/9/4 8/10/4
f 5/11/5 7/8/5 6/12/5
f 16/13/6 17/14/6 18/15/6
f 21/16/7 20/17/7 24/18/7
f 21/16/8 24/18/8 22/19/8
f 22/19/9 24/18/9 23/20/9
f 18/15/10 13/21/10 14/22/10
f 14/22/11 15/23/11 18/15/11
f 15/23/12 16/13/12 18/15/12
f 64/24/13 62/25/13 75/26/13
f 46/27/14 42/28/14 49/29/14
f 43/30/15 42/31/15 44/32/15
f 44/33/16 40/34/16 38/35/16
f 45/36/17 29/37/17 46/27/17
f 48/38/18 29/37/18 45/36/18
f 34/39/19 27/40/19 48/38/19
f 54/41/20 53/42/20 50/43/20
f 50/43/21 26/44/21 30/45/21
f 38/46/22 52/47/22 44/48/22
f 44/48/23 41/49/23 43/50/23
f 41/49/24 51/51/24 35/52/24
f 36/53/25 30/45/25 43/50/25
f 72/54/26 47/55/26 58/56/26
f 37/57/27 33/58/27 55/59/27
f 58/60/28 32/61/28 57/62/28
f 31/63/29 26/64/29 27/65/29
f 31/63/30 30/66/30 26/64/30
f 27/67/31 28/68/31 29/69/31
f 40/70/32 44/32/32 42/31/32
f 42/71/33 30/66/33 31/63/33
f 36/72/34 60/73/34 50/74/34
f 51/75/35 74/76/35 35/77/35
f 63/78/36 53/79/36 54/80/36
f 60/73/37 54/81/37 50/74/37
f 58/82/38 61/83/38 59/84/38
f 57/85/39 66/86/39 61/83/39
f 63/87/40 75/26/40 62/25/40
f 65/88/41 62/25/41 64/24/41
f 37/89/42 69/90/42 66/86/42
f 68/91/43 64/24/43 67/92/43
f 55/93/44 71/94/44 69/90/44
f 72/95/45 59/84/45 71/94/45
f 74/96/46 67/92/46 73/97/46
f 76/98/47 73/97/47 75/26/47
f 57/85/48 61/83/48 58/82/48
f 60/99/49 75/26/49 63/87/49
f 63/87/50 62/25/50 65/88/50
f 56/100/51 66/101/51 57/62/51
f 65/88/52 64/24/52 68/91/52
f 37/89/53 66/86/53 56/102/53
f 68/91/54 67/92/54 70/103/54
f 55/93/55 69/90/55 37/89/55
f 70/103/56 67/92/56 74/96/56
f 72/95/57 71/94/57 55/93/57
f 74/96/58 73/97/58 76/98/58
f 58/56/59 59/104/59 72/54/59
f 76/98/60 75/26/60 60/99/60
f 75/26/61 73/97/61 67/92/61
f 67/92/62 64/24/62 75/26/62
f 66/86/63 69/90/63 71/94/63
f 66/86/64 59/84/64 61/83/64
f 71/94/65 59/84/65 66/86/65
f 46/27/66 40/105/66 42/28/66
f 56/106/67 45/107/67 46/108/67
f 46/27/68 29/37/68 40/105/68
f 48/38/69 27/40/69 29/37/69
f 34/39/70 31/109/70 27/40/70
f 34/110/71 32/111/71 58/56/71
f 37/57/72 46/112/72 33/58/72
f 47/55/73 34/110/73 58/56/73
f 49/113/74 55/59/74 33/58/74
f 52/47/75 39/114/75 44/48/75
f 39/114/76 41/49/76 44/48/76
f 43/50/77 41/49/77 35/52/77
f 43/50/78 35/52/78 36/53/78
f 36/53/79 50/43/79 30/45/79
f 48/115/80 57/62/80 32/61/80
f 76/116/81 36/72/81 74/117/81
f 27/67/82 26/118/82 28/68/82
f 32/119/83 34/39/83 48/38/83
f 29/69/84 28/68/84 38/120/84
f 29/121/85 38/35/85 40/34/85
f 33/122/86 46/27/86 49/29/86
f 43/30/87 30/123/87 42/31/87
f 76/116/88 60/73/88 36/72/88
f 70/124/89 74/76/89 51/75/89
f 52/125/90 65/126/90 68/127/90
f 53/79/91 63/78/91 65/128/91
f 54/81/92 60/73/92 63/129/92
f 7/8/93 5/11/93 21/130/93 22/131/93
f 9/132/94 7/8/94 22/131/94 23/133/94
f 11/6/95 9/5/95 23/134/95 25/135/95
f 3/136/96 2/4/96 19/137/96 20/138/96
f 5/139/97 3/140/97 20/141/97 21/142/97
f 13/143/98 18/144/98 12/3/98 1/2/98
f 15/145/99 14/146/99 4/147/99 6/148/99
f 18/149/100 17/150/100 10/7/100 12/151/100
f 10/7/101 11/6/101 12/151/101
f 17/152/102 16/153/102 8/10/102 10/9/102
f 7/8/103 9/132/103 10/9/103
f 16/153/104 15/154/104 6/12/104 8/10/104
f 6/12/105 7/8/105 8/10/105
f 6/148/106 4/147/106 3/140/106 5/139/106
f 4/155/107 1/2/107 2/4/107 3/136/107
f 14/156/108 13/143/108 1/2/108 4/155/108
f 42/28/109 31/109/109 47/157/109 49/29/109
f 19/158/110 24/18/110 20/17/110
f 25/159/111 23/20/111 24/18/111
f 19/158/112 25/159/112 24/18/112
f 49/113/113 47/160/113 72/161/113 55/59/113
f 19/137/114 2/4/114 11/1/114 25/162/114
f 34/39/115 47/157/115 31/109/115
f 37/163/116 56/106/116 46/108/116
f 53/42/117 28/164/117 26/44/117 50/43/117
f 53/42/118 52/47/118 38/46/118 28/164/118
f 57/62/119 48/115/119 45/165/119 56/100/119
f 68/166/120 70/124/120 41/167/120 39/168/120
f 74/117/121 36/72/121 35/169/121
f 51/75/122 41/167/122 70/124/122
f 39/170/123 52/125/123 68/127/123
f 52/171/124 53/79/124 65/128/124
